<?xml version="1.0" encoding="utf-8"?><svg width="64px" height="64px" viewBox="0 0 64 64" version="1.1" xmlns:xlink="http://www.w3.org/1999/xlink" xmlns="http://www.w3.org/2000/svg"><defs><linearGradient gradientUnits="objectBoundingBox" x1="0.5000696" y1="0" x2="0.5000696" y2="1" id="gradient_1"><stop offset="0%" stop-color="#6DC7FF" /><stop offset="100%" stop-color="#E6ABFF" /></linearGradient><linearGradient gradientUnits="objectBoundingBox" x1="0.5" y1="0" x2="0.5" y2="1.0000001" id="gradient_2"><stop offset="0%" stop-color="#1A6DFF" /><stop offset="100%" stop-color="#C822FF" /></linearGradient><linearGradient gradientUnits="objectBoundingBox" x1="0.5" y1="0" x2="0.5" y2="1" id="gradient_3"><stop offset="0%" stop-color="#1A6DFF" /><stop offset="100%" stop-color="#C822FF" /></linearGradient><path d="M64 0L64 0L64 64L0 64L0 0L64 0Z" id="path_1" /> <clipPath id="clip_1"><use xlink:href="#path_1" clip-rule="evenodd" fill-rule="evenodd" /></clipPath></defs><g id="Weather"><path d="M64 0L64 0L64 64L0 64L0 0L64 0Z" id="Weather" fill="none" stroke="none" /><path d="M22.482 30.164C22.449 29.863 22.428 29.559 22.428 29.25C22.428 25.52 24.921 22.372 28.34 21.351C27.038 18.993 24.529 17.395 21.645 17.395C18.033 17.395 15.007 19.899 14.206 23.266C14.142 23.534 14.093 23.807 14.058 24.085C14.02 24.398 14 24.717 14 25.041C14 28.488 16.281 31.4 19.416 32.354C20.2 31.359 21.255 30.584 22.482 30.164L22.482 30.164Z" id="Shape" fill="url(#gradient_1)" stroke="none" clip-path="url(#clip_1)" /><path d="M50 9L14 9C11.243 9 9 11.243 9 14L9 50C9 52.757 11.243 55 14 55L50 55C52.757 55 55 52.757 55 50L55 14C55 11.243 52.757 9 50 9L50 9ZM53 50C53 51.654 51.654 53 50 53L14 53C12.346 53 11 51.654 11 50L11 14C11 12.346 12.346 11 14 11L50 11C51.654 11 53 12.346 53 14L53 50L53 50Z" id="Shape" fill="url(#gradient_2)" fill-rule="evenodd" stroke="none" clip-path="url(#clip_1)" /><path d="M41.25 26.6C40.802 26.6 40.299 26.615 39.757 26.696C38.645 22.813 34.94 20 30.732 20C25.602 20 21.428 24.149 21.428 29.25C21.428 29.336 21.429 29.422 21.432 29.508C18.752 30.741 17 33.421 17 36.4C17 40.59 20.429 44 24.643 44L41.25 44C46.075 44 50 40.097 50 35.3C50 30.503 46.075 26.6 41.25 26.6L41.25 26.6ZM41.25 42L24.643 42C21.531 42 19 39.488 19 36.4C19 34.014 20.529 31.889 22.806 31.11L23.565 30.851L23.477 30.054C23.448 29.789 23.429 29.522 23.429 29.25C23.429 25.252 26.705 22 30.733 22C34.335 22 37.464 24.6 38.013 28.048L38.195 29.19L39.299 28.845C39.857 28.671 40.422 28.6 41.251 28.6C44.973 28.6 48.001 31.605 48.001 35.3C48.001 38.995 44.972 42 41.25 42L41.25 42Z" id="Shape" fill="url(#gradient_3)" fill-rule="evenodd" stroke="none" clip-path="url(#clip_1)" /></g></svg>